<svg width="46" height="46" viewBox="0 0 46 46" fill="none" xmlns="http://www.w3.org/2000/svg">
<rect width="46" height="46" rx="11" fill="#EAEAEA"/>
<path d="M24.125 13.5625V20.3125H30.875C30.875 18.5223 30.1638 16.8054 28.898 15.5395C27.6321 14.2737 25.9152 13.5625 24.125 13.5625V13.5625Z" stroke="black" stroke-width="1.125" stroke-linecap="round" stroke-linejoin="round"/>
<path d="M21.875 23.6875V16.9375C20.7991 16.9376 19.7388 17.1949 18.7825 17.6879C17.8262 18.181 17.0016 18.8955 16.3774 19.7718C15.7533 20.6482 15.3477 21.6611 15.1944 22.7261C15.0412 23.7911 15.1447 24.8772 15.4965 25.894C15.8482 26.9109 16.4379 27.8289 17.2164 28.5715C17.9949 29.3142 18.9396 29.86 19.9719 30.1635C21.0041 30.4669 22.0939 30.5192 23.1505 30.316C24.2071 30.1128 25.1997 29.66 26.0458 28.9952L21.875 23.6875Z" stroke="black" stroke-width="1.125" stroke-linecap="round" stroke-linejoin="round"/>
<path d="M30.875 22.5625H24.125L28.2958 27.8702C29.1001 27.2391 29.7503 26.4333 30.1972 25.5137C30.6441 24.5941 30.8758 23.5849 30.875 22.5625V22.5625Z" stroke="black" stroke-width="1.125" stroke-linecap="round" stroke-linejoin="round"/>
</svg>
