<svg width="38" height="38" viewBox="0 0 38 38" fill="none" xmlns="http://www.w3.org/2000/svg">
<circle cx="19" cy="19" r="19" fill="#EAEAEA"/>
<g clip-path="url(#clip0_180:38)">
<circle cx="19" cy="19" r="19" fill="#EAEAEA"/>
<path d="M19.002 25.5783C23.2877 25.5783 26.7911 22.0749 26.7911 17.7891C26.7911 13.5034 23.2877 10 19.002 10C14.7162 10 11.2129 13.5034 11.2129 17.7891C11.2129 22.0749 14.7163 25.5783 19.002 25.5783Z" fill="#D3D3D3"/>
<path d="M32.3695 31.8028C32.1654 31.2926 31.8933 30.8164 31.5872 30.3742C30.0225 28.0612 27.6076 26.5306 24.8865 26.1565C24.5464 26.1225 24.1723 26.1905 23.9001 26.3946C22.4716 27.449 20.7709 27.9932 19.0022 27.9932C17.2334 27.9932 15.5328 27.449 14.1042 26.3946C13.8321 26.1905 13.4579 26.0885 13.1178 26.1565C10.3967 26.5306 7.94774 28.0612 6.41714 30.3742C6.11102 30.8164 5.83889 31.3266 5.63485 31.8028C5.53283 32.0069 5.56681 32.245 5.66883 32.4491C5.94097 32.9252 6.28107 33.4015 6.58719 33.8096C7.06336 34.4559 7.57359 35.0341 8.15184 35.5783C8.62801 36.0545 9.17222 36.4967 9.71649 36.9388C12.4035 38.9457 15.6348 40 18.9682 40C22.3015 40 25.5328 38.9456 28.2199 36.9388C28.7641 36.5307 29.3083 36.0545 29.7845 35.5783C30.3287 35.0341 30.8729 34.4558 31.3492 33.8096C31.6893 33.3674 31.9955 32.9252 32.2675 32.4491C32.4375 32.245 32.4715 32.0068 32.3695 31.8028Z" fill="#D3D3D3"/>
</g>
<defs>
<clipPath id="clip0_180:38">
<rect width="38" height="38" rx="19" fill="white"/>
</clipPath>
</defs>
</svg>
