<svg width="46" height="46" viewBox="0 0 46 46" fill="none" xmlns="http://www.w3.org/2000/svg">
<rect width="46" height="46" rx="11" fill="#EAEAEA"/>
<path d="M16.2275 16.0782L24.431 18.41C24.9868 18.5926 25.4724 18.9431 25.8205 19.4133C26.1687 19.8835 26.3625 20.4501 26.375 21.035V28.9175C26.3984 29.1664 26.3608 29.4172 26.2655 29.6482C26.1702 29.8793 26.0201 30.0837 25.8281 30.2438C25.6361 30.4038 25.408 30.5146 25.1635 30.5667C24.9191 30.6188 24.6656 30.6106 24.425 30.5427L17.639 28.6978C17.0831 28.5248 16.5956 28.1813 16.2457 27.716C15.8957 27.2507 15.701 26.6871 15.689 26.105V17.516C15.6767 16.9712 15.8803 16.4437 16.2555 16.0484C16.6306 15.6532 17.1468 15.4223 17.6915 15.4062H28.0625C28.6592 15.4062 29.2315 15.6433 29.6535 16.0653C30.0755 16.4872 30.3125 17.0595 30.3125 17.6562V24.371C30.3099 24.6743 30.2474 24.9742 30.1286 25.2533C30.0099 25.5325 29.8372 25.7854 29.6206 25.9977C29.4039 26.21 29.1474 26.3775 28.8659 26.4905C28.5844 26.6035 28.2833 26.6598 27.98 26.6562H26.375" stroke="black" stroke-width="1.125" stroke-linecap="round" stroke-linejoin="round"/>
<path d="M23.2812 23.8438C23.3369 23.8438 23.3913 23.8602 23.4375 23.8911C23.4838 23.9221 23.5198 23.966 23.5411 24.0174C23.5624 24.0688 23.5679 24.1253 23.5571 24.1799C23.5462 24.2344 23.5195 24.2845 23.4801 24.3239C23.4408 24.3632 23.3907 24.39 23.3361 24.4008C23.2816 24.4117 23.225 24.4061 23.1736 24.3848C23.1222 24.3636 23.0783 24.3275 23.0474 24.2813C23.0165 24.235 23 24.1806 23 24.125C23 24.0504 23.0296 23.9789 23.0824 23.9261C23.1351 23.8734 23.2067 23.8438 23.2812 23.8438" stroke="black" stroke-width="1.125" stroke-linecap="round" stroke-linejoin="round"/>
<path d="M30.3125 21.0312H26.375" stroke="black" stroke-width="1.125" stroke-linecap="round" stroke-linejoin="round"/>
</svg>
