<svg width="36" height="35" viewBox="0 0 36 35" fill="none" xmlns="http://www.w3.org/2000/svg">
<path d="M17.9999 9.29688C17.9999 13.8273 14.2993 17.5 9.73454 17.5H1.46924V9.29688C1.46924 4.76641 5.16974 1.09375 9.73454 1.09375C14.2993 1.09375 17.9999 4.76641 17.9999 9.29688Z" fill="#17CF97"/>
<path d="M18 25.7031C18 21.1727 21.7005 17.5 26.2653 17.5H34.5306V25.7031C34.5306 30.2336 30.8301 33.9062 26.2653 33.9062C21.7005 33.9062 18 30.2336 18 25.7031Z" fill="#17CF97"/>
<path d="M1.46924 25.7031C1.46924 30.2336 5.16974 33.9062 9.73454 33.9062H17.9999V25.7031C17.9999 21.1727 14.2993 17.5 9.73454 17.5C5.16974 17.5 1.46924 21.1727 1.46924 25.7031Z" fill="#17CF97"/>
<path d="M34.5306 9.29688C34.5306 4.76641 30.8301 1.09375 26.2653 1.09375H18V9.29688C18 13.8273 21.7005 17.5 26.2653 17.5C30.8301 17.5 34.5306 13.8273 34.5306 9.29688Z" fill="#17CF97"/>
</svg>
