<svg width="56" height="29" viewBox="0 0 56 29" fill="none" xmlns="http://www.w3.org/2000/svg">
<path d="M1.44775 16.7837H3.03419V24.6823H1.44775V16.7837Z" fill="#394149"/>
<path d="M3.95423 21.9762C3.95318 21.4089 4.11791 20.854 4.42756 20.3818C4.73721 19.9095 5.17787 19.5412 5.69377 19.3233C6.20964 19.1055 6.7776 19.0479 7.32573 19.158C7.87385 19.268 8.37752 19.5406 8.77293 19.9415C9.16841 20.3422 9.43788 20.8532 9.54724 21.4095C9.65667 21.9658 9.60106 22.5427 9.38748 23.0669C9.17389 23.5912 8.81196 24.0393 8.34745 24.3546C7.88298 24.67 7.33681 24.8382 6.7781 24.8382C6.40649 24.8425 6.03784 24.7715 5.69366 24.6292C5.3495 24.487 5.03674 24.2765 4.77374 24.0099C4.51075 23.7434 4.30279 23.4262 4.16207 23.0769C4.02134 22.7277 3.95068 22.3535 3.95423 21.9762ZM8.00489 21.9762C7.99868 21.7313 7.92145 21.4937 7.78291 21.2932C7.64437 21.0925 7.45066 20.9379 7.22599 20.8485C7.00132 20.7592 6.7557 20.7391 6.51989 20.7907C6.28401 20.8423 6.06841 20.9635 5.89997 21.1389C5.73157 21.3143 5.61784 21.5363 5.573 21.7771C5.52818 22.0178 5.55426 22.2666 5.64797 22.4923C5.74171 22.7181 5.8989 22.9108 6.09989 23.0463C6.30093 23.1818 6.5368 23.2541 6.7781 23.2542C6.94313 23.2589 7.10738 23.2288 7.26043 23.1658C7.41348 23.1028 7.55202 23.0083 7.66733 22.8882C7.78257 22.7681 7.87212 22.6251 7.93019 22.4682C7.98832 22.3112 8.01374 22.1437 8.00489 21.9762Z" fill="#394149"/>
<path d="M15.9794 19.27V24.4141C15.9794 26.2344 14.5781 27.0022 13.1609 27.0022C12.6626 27.0399 12.1636 26.9375 11.7187 26.7064C11.2738 26.4753 10.9001 26.1244 10.6385 25.6921L12.0028 24.892C12.1111 25.1135 12.2824 25.297 12.4945 25.4186C12.7066 25.5402 12.9498 25.5943 13.1927 25.5739C13.3524 25.601 13.5161 25.5904 13.6712 25.543C13.8263 25.4956 13.9686 25.4127 14.0872 25.3006C14.2057 25.1885 14.2973 25.0503 14.3549 24.8966C14.4126 24.7429 14.4346 24.5778 14.4194 24.4141V23.9147C14.233 24.1477 13.995 24.3328 13.7249 24.455C13.4548 24.5772 13.1601 24.6331 12.8648 24.6181C12.1467 24.6181 11.4581 24.3285 10.9502 23.8129C10.4425 23.2973 10.1572 22.598 10.1572 21.8689C10.1572 21.1397 10.4425 20.4405 10.9502 19.9249C11.4581 19.4093 12.1467 19.1197 12.8648 19.1197C13.1599 19.106 13.4542 19.1624 13.7241 19.2845C13.994 19.4067 14.2321 19.5911 14.4194 19.8231V19.2861L15.9794 19.27ZM14.4194 21.8689C14.43 21.6078 14.3634 21.3494 14.2282 21.1269C14.093 20.9046 13.8953 20.7283 13.6607 20.6209C13.4261 20.5134 13.1651 20.4797 12.9114 20.524C12.6577 20.5683 12.4229 20.6887 12.2372 20.8696C12.0514 21.0505 11.9231 21.2837 11.8689 21.5392C11.8147 21.7947 11.8369 22.0609 11.9329 22.3034C12.0288 22.546 12.1939 22.7538 12.4071 22.9003C12.6203 23.0468 12.8718 23.1252 13.1291 23.1254C13.2972 23.1374 13.4658 23.1137 13.6242 23.0555C13.7826 22.9973 13.9273 22.9062 14.0488 22.7878C14.1704 22.6694 14.2662 22.5265 14.33 22.3682C14.3938 22.21 14.4243 22.0399 14.4194 21.8689Z" fill="#394149"/>
<path d="M16.8942 21.9762C16.8931 21.4089 17.0579 20.854 17.3675 20.3818C17.6772 19.9095 18.1178 19.5412 18.6337 19.3233C19.1496 19.1055 19.7175 19.0479 20.2657 19.158C20.8138 19.268 21.3174 19.5406 21.7129 19.9415C22.1083 20.3422 22.3778 20.8532 22.4872 21.4095C22.5966 21.9658 22.541 22.5427 22.3274 23.0669C22.1138 23.5912 21.7519 24.0393 21.2874 24.3546C20.8229 24.67 20.2767 24.8382 19.718 24.8382C19.3465 24.8425 18.9778 24.7715 18.6336 24.6292C18.2894 24.487 17.9767 24.2765 17.7137 24.0099C17.4507 23.7434 17.2427 23.4262 17.102 23.0769C16.9613 22.7277 16.8906 22.3535 16.8942 21.9762ZM20.9449 21.9762C20.9386 21.7313 20.8614 21.4937 20.7228 21.2932C20.5843 21.0925 20.3906 20.9379 20.1659 20.8485C19.9413 20.7592 19.6957 20.7391 19.4598 20.7907C19.2239 20.8423 19.0083 20.9635 18.8399 21.1389C18.6715 21.3143 18.5578 21.5363 18.5129 21.7771C18.4681 22.0178 18.4942 22.2666 18.5879 22.4923C18.6816 22.7181 18.8388 22.9108 19.0398 23.0463C19.2409 23.1818 19.4767 23.2541 19.718 23.2542C19.8822 23.2574 20.0453 23.2262 20.1971 23.1625C20.3489 23.0988 20.4861 23.0041 20.6003 22.8842C20.7144 22.7643 20.8029 22.6218 20.8604 22.4656C20.9179 22.3094 20.943 22.1427 20.9343 21.9762H20.9449Z" fill="#394149"/>
<path d="M23.2769 17.82C23.2769 17.6268 23.3333 17.4378 23.439 17.2771C23.5448 17.1164 23.6951 16.9911 23.871 16.9172C24.0469 16.8432 24.2403 16.8239 24.427 16.8616C24.6137 16.8993 24.7852 16.9923 24.9198 17.129C25.0545 17.2657 25.1461 17.4398 25.1832 17.6294C25.2204 17.8189 25.2013 18.0155 25.1285 18.194C25.0556 18.3726 24.9323 18.5252 24.774 18.6326C24.6157 18.74 24.4297 18.7973 24.2393 18.7973C23.9845 18.7959 23.7405 18.6925 23.5603 18.5095C23.3801 18.3266 23.2783 18.0788 23.2769 17.82ZM23.4408 19.2698H25.0272V24.6823H23.4408V19.2698Z" fill="#394149"/>
<path d="M31.9444 21.9762C31.9637 22.3339 31.913 22.6921 31.7954 23.0299C31.6778 23.3677 31.4956 23.6786 31.2591 23.9446C31.0227 24.2106 30.7368 24.4265 30.4179 24.5798C30.099 24.7332 29.7533 24.821 29.4009 24.8382C29.105 24.8526 28.8095 24.8009 28.5355 24.6868C28.2613 24.5727 28.0152 24.3989 27.8144 24.1777V26.8625H26.228V19.2699H27.8144V19.78C28.0152 19.5588 28.2613 19.385 28.5355 19.2709C28.8095 19.1568 29.105 19.1052 29.4009 19.1195C29.7529 19.1367 30.0981 19.2243 30.4166 19.3774C30.7352 19.5304 31.0208 19.7458 31.2572 20.0113C31.4935 20.2767 31.6759 20.5869 31.7938 20.9241C31.9118 21.2613 31.963 21.6188 31.9444 21.9762ZM30.358 21.9762C30.3518 21.7241 30.2728 21.4795 30.1309 21.2726C29.9891 21.0657 29.7906 20.9055 29.5601 20.8121C29.3295 20.7185 29.077 20.6957 28.8338 20.7465C28.5906 20.7972 28.3674 20.9193 28.1918 21.0976C28.0163 21.2758 27.8961 21.5024 27.8461 21.7494C27.7961 21.9963 27.8186 22.2527 27.9107 22.4868C28.0028 22.7209 28.1605 22.9225 28.3643 23.0665C28.568 23.2105 28.809 23.2907 29.0571 23.2971C29.2304 23.3083 29.4039 23.2817 29.5662 23.2191C29.7284 23.1565 29.8756 23.0594 29.9978 22.9343C30.12 22.8091 30.2145 22.6589 30.2748 22.4937C30.3351 22.3284 30.3599 22.152 30.3474 21.9762H30.358Z" fill="#394149"/>
<path d="M36.8833 23.061C36.8833 24.3068 35.8257 24.8383 34.6623 24.8383C34.1975 24.8801 33.7311 24.7797 33.323 24.55C32.915 24.3204 32.584 23.972 32.3726 23.5497L33.7581 22.7496C33.8143 22.9449 33.9347 23.1148 34.0992 23.2311C34.2637 23.3473 34.4624 23.4029 34.6623 23.3886C35.0484 23.3886 35.2387 23.2651 35.2387 23.0503C35.2387 22.4543 32.5947 22.7711 32.5947 20.9025C32.5947 19.7212 33.5782 19.1251 34.7099 19.1251C35.1275 19.1123 35.5409 19.213 35.9072 19.4169C36.2736 19.6208 36.5795 19.9206 36.7934 20.2849L35.4027 21.026C35.3412 20.8842 35.2405 20.7635 35.1129 20.6787C34.9852 20.5938 34.8361 20.5484 34.6835 20.5481C34.4085 20.5481 34.2393 20.6555 34.2393 20.8541C34.2604 21.4716 36.8833 21.0582 36.8833 23.061Z" fill="#394149"/>
<path d="M42.7212 19.27V24.6826H41.1347V24.1778C40.9502 24.4021 40.716 24.5788 40.4513 24.6936C40.1867 24.8085 39.8989 24.858 39.6118 24.8383C38.5541 24.8383 37.6182 24.0597 37.6182 22.5938V19.27H39.2046V22.3576C39.1906 22.4891 39.2058 22.6222 39.2488 22.7471C39.2918 22.872 39.3616 22.9857 39.4533 23.0798C39.5449 23.1739 39.6561 23.246 39.7786 23.2911C39.9011 23.3362 40.032 23.3529 40.1617 23.3402C40.7435 23.3402 41.1506 22.9965 41.1506 22.2287V19.27H42.7212Z" fill="#394149"/>
<path d="M51.8907 21.364V24.6824H50.3043V21.5036C50.3043 20.9667 50.0451 20.6122 49.5375 20.6122C49.0299 20.6122 48.702 20.9935 48.702 21.6325V24.6824H47.1156V21.5036C47.1156 20.9667 46.8617 20.6122 46.3488 20.6122C45.8358 20.6122 45.5186 20.9935 45.5186 21.6325V24.6824H43.9321V19.2699H45.5186V19.7693C45.6844 19.5487 45.9018 19.3737 46.1512 19.2603C46.4006 19.1468 46.6739 19.0984 46.9463 19.1195C47.2199 19.106 47.4924 19.1648 47.737 19.2898C47.9817 19.415 48.1902 19.6024 48.3424 19.8337C48.5194 19.5918 48.7538 19.3995 49.0239 19.2746C49.2939 19.1497 49.5907 19.0963 49.8865 19.1195C51.0922 19.1195 51.8907 20.0109 51.8907 21.364Z" fill="#394149"/>
<path d="M53.2446 19.2376C53.8988 19.2376 54.4291 18.6991 54.4291 18.0348C54.4291 17.3705 53.8988 16.832 53.2446 16.832C52.5904 16.832 52.0601 17.3705 52.0601 18.0348C52.0601 18.6991 52.5904 19.2376 53.2446 19.2376Z" fill="#394149"/>
<path d="M19.4008 12.6868C22.4644 12.6868 24.948 10.1649 24.948 7.05406C24.948 3.94323 22.4644 1.42139 19.4008 1.42139C16.3371 1.42139 13.8535 3.94323 13.8535 7.05406C13.8535 10.1649 16.3371 12.6868 19.4008 12.6868Z" fill="#394149"/>
<path d="M31.8016 12.6868C34.8653 12.6868 37.3488 10.1649 37.3488 7.05406C37.3488 3.94323 34.8653 1.42139 31.8016 1.42139C28.738 1.42139 26.2544 3.94323 26.2544 7.05406C26.2544 10.1649 28.738 12.6868 31.8016 12.6868Z" fill="#394149"/>
<path d="M12.5476 1.42139H1.4585V12.6814H12.5476V1.42139Z" fill="#394149"/>
</svg>
