<svg width="36" height="33" viewBox="0 0 36 33" fill="none" xmlns="http://www.w3.org/2000/svg">
<path d="M33.5155 1L20.1523 10.8878L22.6373 5.0606L33.5155 1Z" fill="#E17726" stroke="#E17726" stroke-width="0.25" stroke-linecap="round" stroke-linejoin="round"/>
<path d="M2.69141 1L15.9356 10.9801L13.5697 5.06059L2.69141 1Z" fill="#E27625" stroke="#E27625" stroke-width="0.25" stroke-linecap="round" stroke-linejoin="round"/>
<path d="M28.704 23.9263L25.1484 29.358L32.7619 31.4542L34.9428 24.045L28.704 23.9263Z" fill="#E27625" stroke="#E27625" stroke-width="0.25" stroke-linecap="round" stroke-linejoin="round"/>
<path d="M1.27734 24.045L3.44504 31.4542L11.0453 29.358L7.5029 23.9263L1.27734 24.045Z" fill="#E27625" stroke="#E27625" stroke-width="0.25" stroke-linecap="round" stroke-linejoin="round"/>
<path d="M10.6353 14.7505L8.52051 17.941L16.0546 18.2838L15.8035 10.1758L10.6353 14.7505Z" fill="#E27625" stroke="#E27625" stroke-width="0.25" stroke-linecap="round" stroke-linejoin="round"/>
<path d="M25.5715 14.751L20.3242 10.084L20.1523 18.2843L27.6864 17.9415L25.5715 14.751Z" fill="#E27625" stroke="#E27625" stroke-width="0.25" stroke-linecap="round" stroke-linejoin="round"/>
<path d="M11.0449 29.3579L15.605 27.1563L11.6794 24.0977L11.0449 29.3579Z" fill="#E27625" stroke="#E27625" stroke-width="0.25" stroke-linecap="round" stroke-linejoin="round"/>
<path d="M20.6016 27.1563L25.1484 29.3579L24.5272 24.0977L20.6016 27.1563Z" fill="#E27625" stroke="#E27625" stroke-width="0.25" stroke-linecap="round" stroke-linejoin="round"/>
<path d="M25.1484 29.3584L20.6016 27.1567L20.9716 30.1099L20.9319 31.3623L25.1484 29.3584Z" fill="#D5BFB2" stroke="#D5BFB2" stroke-width="0.25" stroke-linecap="round" stroke-linejoin="round"/>
<path d="M11.0449 29.3584L15.2746 31.3623L15.2482 30.1099L15.605 27.1567L11.0449 29.3584Z" fill="#D5BFB2" stroke="#D5BFB2" stroke-width="0.25" stroke-linecap="round" stroke-linejoin="round"/>
<path d="M15.3545 22.147L11.5742 21.0396L14.2442 19.8135L15.3545 22.147Z" fill="#233447" stroke="#233447" stroke-width="0.25" stroke-linecap="round" stroke-linejoin="round"/>
<path d="M20.8525 22.147L21.9629 19.8135L24.6461 21.0396L20.8525 22.147Z" fill="#233447" stroke="#233447" stroke-width="0.25" stroke-linecap="round" stroke-linejoin="round"/>
<path d="M11.0453 29.358L11.7062 23.9263L7.50293 24.045L11.0453 29.358Z" fill="#CC6228" stroke="#CC6228" stroke-width="0.25" stroke-linecap="round" stroke-linejoin="round"/>
<path d="M24.501 23.9263L25.1487 29.358L28.7042 24.045L24.501 23.9263Z" fill="#CC6228" stroke="#CC6228" stroke-width="0.25" stroke-linecap="round" stroke-linejoin="round"/>
<path d="M27.6864 17.9409L20.1523 18.2837L20.8529 22.1466L21.9632 19.813L24.6464 21.0391L27.6864 17.9409Z" fill="#CC6228" stroke="#CC6228" stroke-width="0.25" stroke-linecap="round" stroke-linejoin="round"/>
<path d="M11.5738 21.0391L14.2438 19.813L15.3541 22.1466L16.0546 18.2837L8.52051 17.9409L11.5738 21.0391Z" fill="#CC6228" stroke="#CC6228" stroke-width="0.25" stroke-linecap="round" stroke-linejoin="round"/>
<path d="M8.52051 17.9409L11.6796 24.0978L11.5738 21.0391L8.52051 17.9409Z" fill="#E27525" stroke="#E27525" stroke-width="0.25" stroke-linecap="round" stroke-linejoin="round"/>
<path d="M24.6463 21.0391L24.5273 24.0978L27.6864 17.9409L24.6463 21.0391Z" fill="#E27525" stroke="#E27525" stroke-width="0.25" stroke-linecap="round" stroke-linejoin="round"/>
<path d="M16.0551 18.2837L15.3545 22.1466L16.2401 26.7081L16.4384 20.6964L16.0551 18.2837Z" fill="#E27525" stroke="#E27525" stroke-width="0.25" stroke-linecap="round" stroke-linejoin="round"/>
<path d="M20.1524 18.2837L19.7822 20.6832L19.9673 26.7081L20.8529 22.1466L20.1524 18.2837Z" fill="#E27525" stroke="#E27525" stroke-width="0.25" stroke-linecap="round" stroke-linejoin="round"/>
<path d="M20.8534 22.1465L19.9678 26.708L20.6023 27.1563L24.5279 24.0977L24.6469 21.0391L20.8534 22.1465Z" fill="#F5841F" stroke="#F5841F" stroke-width="0.25" stroke-linecap="round" stroke-linejoin="round"/>
<path d="M11.5742 21.0391L11.68 24.0977L15.6056 27.1563L16.2401 26.708L15.3545 22.1465L11.5742 21.0391Z" fill="#F5841F" stroke="#F5841F" stroke-width="0.25" stroke-linecap="round" stroke-linejoin="round"/>
<path d="M20.9318 31.3624L20.9714 30.1099L20.6278 29.8198H15.5786L15.2482 30.1099L15.2746 31.3624L11.0449 29.3584L12.5253 30.5713L15.5257 32.6412H20.6674L23.681 30.5713L25.1482 29.3584L20.9318 31.3624Z" fill="#C0AC9D" stroke="#C0AC9D" stroke-width="0.25" stroke-linecap="round" stroke-linejoin="round"/>
<path d="M20.6012 27.1562L19.9667 26.708H16.2393L15.605 27.1562L15.248 30.1094L15.5785 29.8193H20.6277L20.9714 30.1094L20.6012 27.1562Z" fill="#161616" stroke="#161616" stroke-width="0.25" stroke-linecap="round" stroke-linejoin="round"/>
<path d="M34.0836 11.5338L35.2071 6.07574L33.5152 1L20.6016 10.5583L25.5714 14.7506L32.59 16.7942L34.1365 14.988L33.4624 14.5001L34.533 13.5246L33.7135 12.8918L34.7842 12.0743L34.0836 11.5338Z" fill="#763E1A" stroke="#763E1A" stroke-width="0.25" stroke-linecap="round" stroke-linejoin="round"/>
<path d="M1 6.07574L2.13673 11.5338L1.40975 12.0743L2.4936 12.8918L1.67411 13.5246L2.74474 14.5001L2.07063 14.988L3.61711 16.7942L10.6358 14.7506L15.6056 10.5583L2.69187 1L1 6.07574Z" fill="#763E1A" stroke="#763E1A" stroke-width="0.25" stroke-linecap="round" stroke-linejoin="round"/>
<path d="M32.5902 16.7939L25.5715 14.7505L27.6864 17.941L24.5273 24.0977L28.7041 24.045H34.9429L32.5902 16.7939Z" fill="#F5841F" stroke="#F5841F" stroke-width="0.25" stroke-linecap="round" stroke-linejoin="round"/>
<path d="M10.6355 14.7505L3.61688 16.7939L1.27734 24.045H7.5029L11.6797 24.0977L8.52067 17.941L10.6355 14.7505Z" fill="#F5841F" stroke="#F5841F" stroke-width="0.25" stroke-linecap="round" stroke-linejoin="round"/>
<path d="M20.1528 18.2839L20.6022 10.5581L22.6377 5.06055H13.5703L15.6058 10.5581L16.0552 18.2839L16.2271 20.7096L16.2403 26.7083H19.9677L19.9809 20.7096L20.1528 18.2839Z" fill="#F5841F" stroke="#F5841F" stroke-width="0.25" stroke-linecap="round" stroke-linejoin="round"/>
</svg>
