<svg width="46" height="46" viewBox="0 0 46 46" fill="none" xmlns="http://www.w3.org/2000/svg">
<rect width="46" height="46" rx="11" fill="#EAEAEA"/>
<path d="M13.6333 26.1252H18.4916C18.7234 26.1239 18.9503 26.0587 19.1474 25.9366C19.3444 25.8146 19.5039 25.6405 19.6083 25.4335L21.0833 22.4752C21.1405 22.366 21.2284 22.2758 21.3361 22.2158C21.4439 22.1558 21.5668 22.1285 21.6898 22.1374C21.8128 22.1462 21.9305 22.1908 22.0285 22.2656C22.1266 22.3404 22.2006 22.4422 22.2416 22.5585L23.7833 27.1669C23.8235 27.2832 23.8971 27.3851 23.995 27.4597C24.0928 27.5344 24.2106 27.5785 24.3334 27.5865C24.4562 27.5945 24.5787 27.5661 24.6854 27.5048C24.7921 27.4434 24.8783 27.352 24.9333 27.2419L26.4166 24.2835C26.5195 24.0754 26.6786 23.9002 26.876 23.7779C27.0734 23.6557 27.3011 23.5912 27.5333 23.5919H32.375" stroke="black" stroke-width="1.25" stroke-linecap="round" stroke-linejoin="round"/>
<path d="M31.125 14.6667H14.875C14.1846 14.6667 13.625 15.2264 13.625 15.9167V30.0834C13.625 30.7738 14.1846 31.3334 14.875 31.3334H31.125C31.8154 31.3334 32.375 30.7738 32.375 30.0834V15.9167C32.375 15.2264 31.8154 14.6667 31.125 14.6667Z" stroke="black" stroke-width="1.25" stroke-linecap="round" stroke-linejoin="round"/>
<path d="M13.625 18.4167H32.375" stroke="black" stroke-width="1.25" stroke-linecap="round" stroke-linejoin="round"/>
</svg>
