<svg width="121" height="25" viewBox="0 0 121 25" fill="none" xmlns="http://www.w3.org/2000/svg">
<path d="M9.25066 12.2233C9.0168 11.997 8.8349 11.8209 8.70498 11.7455C8.41914 11.5443 8.10732 11.3934 7.82149 11.2928C7.50967 11.167 7.14588 11.0412 6.73012 10.9406C5.40488 10.7143 4.41745 10.5131 3.79381 10.3119C3.32608 10.161 3.04025 10.0101 2.85835 9.88431C2.70244 9.7837 2.62449 9.65795 2.62449 9.48189C2.62449 9.20523 2.7804 8.92857 3.06623 8.70221C3.58593 8.2998 4.28753 8.09859 5.14503 8.09859H5.197C6.00254 8.09859 6.67815 8.2998 7.22383 8.70221C7.37974 8.80282 7.53565 8.95372 7.66558 9.12978C8.15929 8.82797 8.60104 8.55131 9.04278 8.2998C9.45854 8.04829 9.69241 7.92254 9.69241 7.89738L9.56248 7.67103C9.45854 7.54527 9.27665 7.36921 9.04278 7.14286C7.9774 6.21227 6.70413 5.75956 5.17102 5.75956C4.18359 5.75956 3.27411 5.96076 2.44259 6.33803C2.18274 6.43863 1.92289 6.61469 1.63706 6.8159C1.53312 6.89135 1.35122 7.04225 1.11736 7.29376C0.5197 7.94769 0.233865 8.67706 0.233865 9.43159V9.50704C0.233865 9.80885 0.285835 10.0855 0.36379 10.3622C0.57167 10.9909 0.987431 11.4688 1.61107 11.8712C1.89691 12.0473 2.15676 12.1982 2.44259 12.2988C3.09222 12.5755 4.10563 12.827 5.43087 13.0785C6.05451 13.1791 6.47027 13.2797 6.70413 13.3551C7.40573 13.6066 7.76952 13.9588 7.76952 14.3863C7.76952 14.6378 7.66558 14.8893 7.43171 15.1408C7.2758 15.2918 7.14588 15.3924 7.04194 15.4427C6.47027 15.7696 5.82064 15.9205 5.09306 15.9205C4.72927 15.9205 4.36548 15.8702 4.00169 15.7948C3.45601 15.6439 2.98828 15.4175 2.5985 15.0654C2.41661 14.8893 2.2607 14.7384 2.18274 14.5875L2.0788 14.4115H2.05282L0 15.5684C0.10394 15.7948 0.25985 15.996 0.41576 16.1972C0.5197 16.3229 0.67561 16.499 0.909475 16.7254C1.16933 16.9517 1.42918 17.1529 1.63706 17.3038C2.67646 17.9326 3.79381 18.2344 5.04109 18.2344H5.11905C6.08049 18.2344 6.98997 18.0583 7.82149 17.6811C8.05535 17.6056 8.3152 17.4296 8.65301 17.2032C8.75695 17.1529 8.96483 16.9769 9.22468 16.7254C9.84832 15.996 10.1601 15.2414 10.1601 14.4115V14.3863C10.1601 13.5815 9.84832 12.8521 9.25066 12.2233Z" fill="black"/>
<path d="M21.9401 8.80282C21.7842 8.55131 21.6023 8.32495 21.3944 8.07344C21.3164 7.94769 21.1345 7.74648 20.8227 7.44467C20.4589 7.14286 20.1471 6.89135 19.8873 6.76559C18.9258 6.18712 17.8604 5.91046 16.6651 5.91046C16.4572 5.91046 16.2753 5.91046 16.1194 5.93561C15.6517 6.01107 15.3139 6.08652 15.132 6.13682C14.8722 6.21227 14.6123 6.31288 14.3525 6.43863C14.1706 6.53924 13.9627 6.69014 13.7028 6.8662C13.6249 6.9165 13.443 7.0674 13.1571 7.39437V6.11167H10.7665V6.13682V22.7616V22.7867H13.1571V16.3732L13.2871 16.499C13.5469 16.7505 13.7548 16.9266 13.9107 17.0272C14.7682 17.6056 15.7037 17.8823 16.7431 17.8823C18.1982 17.8823 19.4715 17.4296 20.6408 16.499L20.8747 16.2978C21.1865 15.9708 21.3944 15.7445 21.5243 15.5936C22.3558 14.4618 22.7716 13.2294 22.7716 11.9215C22.7716 10.8149 22.4858 9.75855 21.9401 8.80282ZM20.1991 13.003C20.0692 13.4809 19.8093 13.9588 19.3935 14.4115C19.1857 14.6127 19.0298 14.7636 18.8998 14.8642C18.2502 15.3421 17.5486 15.5684 16.821 15.5684H16.6651C16.2494 15.5684 15.7816 15.4678 15.2619 15.2414C15.106 15.166 14.9241 15.0654 14.7422 14.9396C14.6383 14.8893 14.4564 14.7384 14.1965 14.4869C13.9627 14.2103 13.7808 14.0091 13.6509 13.833C13.5469 13.6318 13.443 13.3803 13.339 13.1288C13.2091 12.7012 13.1571 12.3742 13.1571 12.1479V11.67C13.1571 11.494 13.1831 11.2173 13.2871 10.84C13.365 10.5885 13.443 10.3873 13.5209 10.2364C13.5989 10.1107 13.7028 9.93461 13.8328 9.75855C13.8847 9.6328 14.0666 9.43159 14.3784 9.12978C14.6903 8.87827 14.9761 8.67706 15.2359 8.55131C15.7556 8.3501 16.2234 8.22435 16.6651 8.22435H16.7691C17.5746 8.22435 18.3022 8.47585 18.9778 8.97887C19.0298 9.00403 19.1857 9.18008 19.4455 9.43159C20.0692 10.161 20.381 10.9909 20.381 11.8964C20.381 12.2736 20.329 12.6509 20.1991 13.003Z" fill="black"/>
<path d="M34.7416 8.65191C34.5077 8.27465 34.0919 7.82193 33.5203 7.29376C32.299 6.36318 31.0257 5.88531 29.7264 5.88531H29.3367C28.1414 5.88531 26.946 6.28773 25.7507 7.11771C24.1397 8.4004 23.3601 9.98491 23.3601 11.8712V11.9215C23.3601 13.2797 23.8019 14.5372 24.7113 15.6942C26.0626 17.1529 27.6476 17.8823 29.4926 17.8823H29.5445C31.3375 17.8823 32.8966 17.1781 34.2219 15.7948C34.6636 15.2414 34.9494 14.8139 35.0794 14.5372C35.0534 14.5121 34.2738 14.2103 32.7147 13.5815C32.6887 13.5815 32.6108 13.7324 32.4549 13.9839C31.6753 15.0402 30.6879 15.5684 29.5186 15.5684C28.5831 15.5684 27.7776 15.2163 27.05 14.5121C26.5563 14.0845 26.2185 13.4557 26.0106 12.6006H35.677C35.703 12.6006 35.729 12.4748 35.729 12.2485V11.8964C35.729 10.7646 35.3912 9.6831 34.7416 8.65191ZM32.7927 10.4125H26.2704L26.4783 9.95976C27.2579 8.80282 28.2713 8.22435 29.5186 8.22435C30.3241 8.22435 31.0517 8.47585 31.7533 9.00402C32.299 9.50704 32.6368 9.98491 32.7927 10.3873V10.4125Z" fill="black"/>
<path d="M47.9949 8.65191C47.7611 8.27465 47.3453 7.82193 46.7736 7.29376C45.5523 6.36318 44.2791 5.88531 42.9798 5.88531H42.59C41.3947 5.88531 40.1994 6.28773 39.0041 7.11771C37.393 8.4004 36.6135 9.98491 36.6135 11.8712V11.9215C36.6135 13.2797 37.0552 14.5372 37.9647 15.6942C39.3159 17.1529 40.901 17.8823 42.7459 17.8823H42.7979C44.5909 17.8823 46.15 17.1781 47.4752 15.7948C47.917 15.2414 48.2028 14.8139 48.3327 14.5372C48.3067 14.5121 47.5272 14.2103 45.9681 13.5815C45.9421 13.5815 45.8641 13.7324 45.7082 13.9839C44.9287 15.0402 43.9413 15.5684 42.7719 15.5684C41.8365 15.5684 41.0309 15.2163 40.3034 14.5121C39.8096 14.0845 39.4718 13.4557 39.264 12.6006H48.9304C48.9564 12.6006 48.9824 12.4748 48.9824 12.2485V11.8964C48.9824 10.7646 48.6445 9.6831 47.9949 8.65191ZM46.046 10.4125H39.5238L39.7317 9.95976C40.5112 8.80282 41.5247 8.22435 42.7719 8.22435C43.5775 8.22435 44.305 8.47585 45.0066 9.00402C45.5523 9.50704 45.8901 9.98491 46.046 10.3873V10.4125Z" fill="black"/>
<path d="M61.5674 0H59.2028V7.41952H59.1768C59.0469 7.26861 58.891 7.11771 58.6571 6.94165C57.7736 6.23742 56.7342 5.88531 55.5649 5.88531C54.2137 5.88531 52.9924 6.31288 51.875 7.16801C51.7191 7.26861 51.5112 7.46982 51.2254 7.74648C50.6537 8.37525 50.238 9.00402 49.9781 9.65795C49.6923 10.3873 49.5623 11.1167 49.5623 11.8964C49.5623 12.9024 49.7962 13.8833 50.3159 14.8139C50.4978 15.1157 50.7057 15.4427 51.0175 15.8199C51.3293 16.172 51.5892 16.4235 51.7971 16.5744C52.0309 16.7505 52.2388 16.9014 52.4467 17.002C53.4341 17.5805 54.4475 17.8823 55.5129 17.8823H55.6688C56.1106 17.8823 56.6563 17.8068 57.2799 17.6308C57.5917 17.5302 57.8775 17.4044 58.1114 17.2535C58.3193 17.1529 58.5272 16.9769 58.787 16.8008C58.917 16.6751 59.0469 16.5241 59.2028 16.3984V17.6056H61.5934V0H61.5674ZM59.2028 11.9215C59.2028 12.7264 58.9429 13.4306 58.4492 14.1097C58.3453 14.2606 58.1894 14.4115 58.0075 14.6127L57.7736 14.8139C57.5138 14.9899 57.2799 15.1408 57.098 15.2163C56.5783 15.4427 56.0846 15.5684 55.5909 15.5684C54.5775 15.5684 53.694 15.1911 52.9664 14.4366C52.6805 14.1097 52.4727 13.8078 52.3168 13.506C52.0829 13.003 51.953 12.4748 51.953 11.9215V11.8712C51.953 10.9658 52.2648 10.1358 52.8884 9.40644C53.642 8.62676 54.5515 8.22435 55.6169 8.22435C56.1106 8.22435 56.6303 8.3501 57.176 8.60161C57.4358 8.72736 57.6697 8.87827 57.9295 9.10463C58.1634 9.33099 58.2933 9.45674 58.3713 9.55734C58.917 10.2364 59.2028 10.9909 59.2028 11.8712V11.9215Z" fill="black"/>
<path d="M72.5493 7.74648C72.2635 7.46982 72.0296 7.26861 71.8737 7.16801C70.7564 6.31288 69.5351 5.88531 68.1839 5.88531C66.9626 5.88531 65.8712 6.23742 64.8318 6.89135C64.6759 7.0171 64.3641 7.24346 63.9743 7.59557C63.6884 7.89738 63.4806 8.14889 63.3247 8.32495C63.1428 8.60161 62.9869 8.85312 62.8569 9.10463C62.3892 10.0101 62.1813 10.8903 62.1813 11.7958V11.9718C62.1813 12.8018 62.3632 13.6318 62.753 14.4618C62.8569 14.7133 63.0128 14.9648 63.1687 15.2163C63.3247 15.4427 63.4806 15.6439 63.6625 15.8451C63.7924 16.0211 64.0263 16.2475 64.3641 16.5241C64.52 16.6499 64.7019 16.7757 64.8838 16.9266C65.9232 17.5553 67.0145 17.8823 68.1319 17.8823H68.2358C69.3012 17.8823 70.3406 17.6056 71.328 17.0272C71.5359 16.9014 71.7438 16.7505 71.9517 16.5744C72.1596 16.4235 72.4194 16.172 72.7312 15.8199C73.0431 15.4427 73.2769 15.1157 73.4588 14.8139C73.9525 13.8833 74.2124 12.9276 74.2124 11.8964C74.2124 11.1167 74.0565 10.3873 73.7706 9.65795C73.5368 9.00402 73.121 8.37525 72.5493 7.74648ZM71.8218 11.9215C71.8218 12.5503 71.6399 13.1539 71.3021 13.7575C71.1721 13.9839 70.9902 14.2354 70.7044 14.5372C69.9508 15.2163 69.1193 15.5684 68.1839 15.5684C67.4043 15.5684 66.7027 15.3169 66.0531 14.839C65.8972 14.7636 65.7153 14.5624 65.4554 14.2857C64.8578 13.5815 64.5719 12.7767 64.5719 11.8964C64.5719 11.0915 64.8058 10.3622 65.2995 9.70825C65.3515 9.60765 65.5074 9.40644 65.7673 9.15493C66.4948 8.52616 67.3004 8.22435 68.1839 8.22435C68.7555 8.22435 69.3272 8.3501 69.8469 8.62676C69.9768 8.70221 70.1068 8.77767 70.2627 8.90342C70.3666 8.92857 70.5485 9.10463 70.8343 9.38129C71.4839 10.1358 71.8218 10.9658 71.8218 11.8712V11.9215ZM71.8218 19.0392C71.8218 19.668 71.6399 20.2968 71.3021 20.8753C71.1721 21.1016 70.9902 21.3531 70.6784 21.6549C69.9508 22.334 69.1193 22.6861 68.1839 22.6861C67.4043 22.6861 66.7027 22.4346 66.0531 21.9567C65.8972 21.8813 65.7153 21.6801 65.4554 21.4034C64.8578 20.6992 64.5719 19.8944 64.5719 19.0141H62.1813V19.0895C62.1813 19.9195 62.3632 20.7495 62.753 21.5795C62.8569 21.831 63.0128 22.0825 63.1687 22.334C63.3247 22.5604 63.4806 22.7616 63.6625 22.9628C63.7924 23.1388 64.0263 23.3652 64.3641 23.6418C64.52 23.7676 64.7019 23.8934 64.8838 24.0443C65.9232 24.673 67.0145 25 68.1319 25H68.2358C69.3012 25 70.3406 24.7233 71.328 24.1449C71.5359 24.0191 71.7438 23.8682 71.9517 23.6922C72.1596 23.5412 72.4194 23.2897 72.7312 22.9376C73.0431 22.5855 73.2769 22.2334 73.4588 21.9316C73.9525 21.001 74.2124 20.0453 74.2124 19.0141H71.8218V19.0392ZM74.6021 3.94869C74.2903 3.69718 73.9525 3.54628 73.5887 3.54628H73.4848C73.199 3.54628 72.8871 3.64688 72.6013 3.82294L72.4194 3.97384C72.1076 4.30081 71.9517 4.65292 71.9517 5.00503V5.10563C71.9517 5.30684 72.0037 5.4829 72.1076 5.6841C72.1596 5.83501 72.2635 5.98592 72.4454 6.16197C72.7572 6.43863 73.121 6.58954 73.4848 6.58954H73.5628C73.9785 6.58954 74.3423 6.41348 74.6801 6.11167C74.94 5.80986 75.0959 5.45775 75.0959 5.10563V5.03018C75.0959 4.62777 74.94 4.27565 74.6021 3.94869Z" fill="black"/>
<path d="M81.7949 6.01107H81.4831C80.5217 6.01107 79.5862 6.36318 78.6767 7.11771V6.26258L78.6507 6.23743H76.3381L76.3121 6.26258V17.5553L76.3381 17.5805H78.6507L78.6767 17.5553V12.2485C78.6767 10.7646 78.9106 9.7334 79.3783 9.20523C79.976 8.62676 80.6776 8.3501 81.4571 8.3501H81.665C82.2886 8.3501 82.9902 8.60161 83.7698 9.10463C83.8218 9.02917 84.0036 8.22435 84.3415 6.71529V6.69014C83.4839 6.23742 82.6264 6.01107 81.7949 6.01107Z" fill="black"/>
<path d="M96.43 6.06137H94.0653L94.0393 6.08652V7.41952C93.0519 6.41348 91.8826 5.88531 90.4794 5.88531C89.0242 5.88531 87.699 6.36318 86.5297 7.31891C85.1265 8.60161 84.4249 10.1107 84.4249 11.8712V11.8964C84.4249 13.33 84.8926 14.6127 85.8281 15.7445C87.1013 17.1781 88.6345 17.8823 90.4534 17.8823C91.9086 17.8823 93.1039 17.3793 94.0393 16.3984V17.5805L94.0653 17.6056H96.43L96.4559 17.5805V6.08652L96.43 6.06137ZM94.0393 11.8964C94.0393 12.9276 93.6496 13.833 92.87 14.6127C92.1165 15.2414 91.3629 15.5433 90.5574 15.5433H90.2975C89.7258 15.5433 89.1282 15.3672 88.5045 14.9899C87.3612 14.1851 86.8155 13.1539 86.8155 11.8712C86.8155 11.0664 87.0754 10.2867 87.621 9.55734C88.4266 8.67706 89.3101 8.22435 90.3235 8.22435H90.5054C91.129 8.22435 91.7267 8.4004 92.3503 8.77767C93.4677 9.55734 94.0393 10.5885 94.0393 11.8712V11.8964Z" fill="black"/>
<path d="M109.004 8.80282C108.848 8.55131 108.666 8.32495 108.458 8.07344C108.38 7.94769 108.199 7.74648 107.887 7.44467C107.523 7.14286 107.211 6.89135 106.951 6.76559C105.99 6.18712 104.924 5.91046 103.729 5.91046C103.521 5.91046 103.339 5.91046 103.183 5.93561C102.716 6.01107 102.378 6.08652 102.196 6.13682C101.936 6.21227 101.676 6.31288 101.416 6.43863C101.235 6.53924 101.027 6.69014 100.767 6.8662C100.689 6.9165 100.507 7.0674 100.221 7.39437V6.11167H97.8305V6.13682V22.7616V22.7867H100.221V16.3732L100.351 16.499C100.611 16.7505 100.819 16.9266 100.975 17.0272C101.832 17.6056 102.768 17.8823 103.807 17.8823C105.262 17.8823 106.535 17.4296 107.705 16.499L107.939 16.2978C108.251 15.9708 108.458 15.7445 108.588 15.5936C109.42 14.4618 109.836 13.2294 109.836 11.9215C109.836 10.8149 109.55 9.75855 109.004 8.80282ZM107.263 13.003C107.133 13.4809 106.873 13.9588 106.458 14.4115C106.25 14.6127 106.094 14.7636 105.964 14.8642C105.314 15.3421 104.613 15.5684 103.885 15.5684H103.729C103.313 15.5684 102.846 15.4678 102.326 15.2414C102.17 15.166 101.988 15.0654 101.806 14.9396C101.702 14.8893 101.52 14.7384 101.261 14.4869C101.027 14.2103 100.845 14.0091 100.715 13.833C100.611 13.6318 100.507 13.3803 100.403 13.1288C100.273 12.7012 100.221 12.3742 100.221 12.1479V11.67C100.221 11.494 100.247 11.2173 100.351 10.84C100.429 10.5885 100.507 10.3873 100.585 10.2364C100.663 10.1107 100.767 9.93461 100.897 9.75855C100.949 9.6328 101.131 9.43159 101.442 9.12978C101.754 8.87827 102.04 8.67706 102.3 8.55131C102.82 8.3501 103.287 8.22435 103.729 8.22435H103.833C104.639 8.22435 105.366 8.47585 106.042 8.97887C106.094 9.00403 106.25 9.18008 106.51 9.43159C107.133 10.161 107.445 10.9909 107.445 11.8964C107.445 12.2736 107.393 12.6509 107.263 13.003Z" fill="black"/>
<path d="M120.532 8.42555C119.597 6.8662 118.064 6.06137 115.933 6.06137H115.829C115.283 6.06137 114.842 6.11167 114.478 6.18712C113.802 6.38833 113.256 6.58954 112.815 6.8159V0H110.424V17.6056H112.815V10.6388C112.815 9.75855 113.075 9.18008 113.62 8.85312C114.062 8.55131 114.764 8.4004 115.777 8.4004H115.985C116.531 8.4004 116.998 8.47585 117.336 8.62676C118.194 8.92857 118.635 9.5825 118.635 10.5634V17.5553L118.661 17.6056H120.974L121 17.5553V10.5885C121 9.75855 120.844 9.02918 120.532 8.42555Z" fill="black"/>
</svg>
