<svg width="150" height="15" viewBox="0 0 150 15" fill="none" xmlns="http://www.w3.org/2000/svg">
<path d="M74.693 14.3739H69.573V0.685863H74.693V14.3739ZM70.073 13.8739H74.193V1.18586H70.073V13.8739ZM81.817 14.3739H76.8V0.685863H87.282C88.7836 0.564263 90.279 0.985833 91.496 1.87386C92.0199 2.35317 92.426 2.94705 92.6825 3.60915C92.9391 4.27126 93.0392 4.98369 92.975 5.69086C93.0498 6.91283 92.6609 8.11806 91.886 9.06586C90.969 10.1179 89.443 10.6599 87.351 10.6789C86.824 10.6929 82.875 10.6789 81.82 10.6789L81.817 14.3739ZM77.297 13.8739H81.317V10.1739H81.568C81.619 10.1739 86.746 10.1899 87.339 10.1739C89.288 10.1569 90.689 9.67386 91.508 8.73086C92.1978 7.87331 92.5404 6.78801 92.468 5.68986C92.5295 5.05623 92.4442 4.41695 92.2188 3.8216C91.9933 3.22625 91.6338 2.69083 91.168 2.25686C90.0396 1.44696 88.659 1.06679 87.275 1.18486H77.3L77.297 13.8739ZM86.22 7.60386H81.283V3.87786H86.253C86.6053 3.82918 86.9642 3.8703 87.2963 3.99739C87.6285 4.12449 87.9232 4.33344 88.153 4.60486C88.3615 4.9518 88.4598 5.35384 88.435 5.75786C88.4537 6.13296 88.3727 6.50633 88.2 6.83986C87.9629 7.12574 87.6562 7.34581 87.3094 7.47891C86.9627 7.61201 86.5875 7.65366 86.22 7.59986V7.60386ZM81.783 7.10386H86.22C87.04 7.10386 87.548 6.93286 87.773 6.58086C87.8969 6.32501 87.953 6.04162 87.936 5.75786C87.9579 5.45992 87.8933 5.162 87.75 4.89986L87.744 4.89086C87.506 4.54086 87.033 4.37786 86.253 4.37786H81.783V7.10386ZM102.1 14.5759C97.61 14.5759 94.93 13.4609 93.909 11.1679C93.7419 10.725 93.6285 10.2637 93.571 9.79386L93.527 9.50586H98.869L98.904 9.71586C98.9451 9.92906 99.036 10.1298 99.168 10.3019C99.379 10.5569 100.083 10.9849 102.419 10.9849C105.227 10.9849 105.227 10.4919 105.227 10.2269C105.227 9.77986 104.902 9.62686 102.612 9.38286L102.177 9.34186C101.315 9.26086 100.225 9.15786 99.727 9.11486C95.527 8.73486 93.652 7.42986 93.652 4.88486C93.652 2.21186 96.843 0.484863 101.782 0.484863C105.811 0.484863 108.407 1.54686 109.496 3.64386C109.754 4.13164 109.928 4.65985 110.009 5.20586L110.044 5.48686H104.696L104.674 5.26086C104.653 5.08424 104.578 4.91855 104.458 4.78686C104.258 4.51886 103.626 4.07586 101.664 4.07586C99.255 4.07586 98.923 4.38386 98.923 4.71586C98.923 5.15886 99.684 5.31586 102.123 5.57686C103.14 5.65986 104.775 5.82786 105.335 5.89586C108.856 6.27786 110.427 7.55086 110.427 10.0249C110.428 12.0999 108.983 14.5759 102.1 14.5759ZM94.111 10.0059C94.1611 10.3357 94.2473 10.6589 94.368 10.9699C95.298 13.0589 97.828 14.0759 102.1 14.0759C105.672 14.0759 109.931 13.3759 109.931 10.0249C109.931 7.83186 108.541 6.74586 105.282 6.39286C104.722 6.32486 103.097 6.15786 102.082 6.07386C99.482 5.79186 98.425 5.64186 98.425 4.71586C98.425 3.75786 99.564 3.57586 101.666 3.57586C103.327 3.57586 104.4 3.87586 104.855 4.48086C104.979 4.62991 105.073 4.80181 105.131 4.98686H109.465C109.378 4.60011 109.24 4.22655 109.055 3.87586C108.055 1.95686 105.612 0.984863 101.784 0.984863C97.149 0.984863 94.154 2.51586 94.154 4.88486C94.154 7.14486 95.835 8.26086 99.773 8.61686C100.273 8.65986 101.362 8.76286 102.226 8.84486L102.664 8.88586C104.791 9.10986 105.729 9.24986 105.729 10.2269C105.729 11.2789 104.516 11.4849 102.421 11.4849C100.483 11.4849 99.259 11.1939 98.786 10.6209C98.6402 10.4382 98.5302 10.2295 98.462 10.0059H94.111ZM119.927 14.5589C114.707 14.5589 111.827 12.4479 111.827 8.61386V0.685863H116.879V8.61386C116.879 9.92886 118.056 10.6829 120.107 10.6829C122.067 10.6829 123.284 9.89586 123.284 8.63086V0.685863H128.284V9.03386C128.289 12.5449 125.24 14.5589 119.924 14.5589H119.927ZM112.327 1.18586V8.61386C112.327 13.3519 117.085 14.0589 119.927 14.0589C122.865 14.0589 127.792 13.4059 127.792 9.03386V1.18586H123.792V8.63086C123.792 10.1809 122.348 11.1829 120.115 11.1829C117.781 11.1829 116.387 10.2229 116.387 8.61386V1.18586H112.327ZM149.472 14.3739H144.704V8.19386L142 14.3739H137.841L135.165 8.20586V14.3739H130.38V0.685863H136.674L139.944 8.23286L143.372 0.685863H149.478L149.472 14.3739ZM145.204 13.8739H148.972V1.18586H143.69L139.928 9.46486L136.342 1.18586H130.876V13.8739H134.661V5.79986L138.161 13.8769H141.661L145.198 5.81186L145.204 13.8739ZM5.054 0.935863H0.5V14.1239H13.084V10.6129H5.054V0.935863ZM22.276 0.635863C16.463 0.635863 13.406 3.39086 13.406 7.43586C13.406 12.0059 16.615 14.3239 22.276 14.3239C28.508 14.3239 31.129 11.6359 31.129 7.43586C31.129 3.17086 28.172 0.633863 22.276 0.633863V0.635863ZM22.259 4.06286C22.6547 4.061 23.0502 4.08404 23.443 4.13186L18.352 9.22286C18.1111 8.67796 17.9936 8.08646 18.008 7.49086C18.008 5.42186 19.05 4.06086 22.259 4.06086V4.06286ZM22.276 10.9509C21.8947 10.9526 21.5137 10.9312 21.135 10.8869L26.235 5.78686C26.4669 6.32276 26.5779 6.90319 26.56 7.48686C26.56 9.49986 25.6 10.9489 22.276 10.9489V10.9509ZM40.152 9.15086H44.839C44.77 9.47616 44.6262 9.78086 44.419 10.0409C43.4473 10.8325 42.2072 11.2177 40.958 11.1159C40.3292 11.1832 39.6934 11.1145 39.0935 10.9145C38.4936 10.7146 37.9436 10.388 37.481 9.95686C37.0071 9.26176 36.782 8.42696 36.842 7.58786C36.7653 6.7086 37.0101 5.83138 37.531 5.11886C38.186 4.37886 39.295 4.05986 40.925 4.05986C41.9621 3.97399 42.9979 4.24034 43.865 4.81586C44.1383 5.03294 44.3426 5.32477 44.453 5.65586H48.8C48.7684 5.11033 48.6372 4.57519 48.413 4.07686C47.372 1.95986 44.952 0.699863 40.837 0.699863C37.258 0.699863 34.856 1.79186 33.529 3.43886C32.6526 4.62822 32.2027 6.0783 32.252 7.55486C32.1953 9.06486 32.6336 10.552 33.5 11.7899C34.811 13.4899 37.146 14.3259 39.952 14.3259C41.8175 14.456 43.6703 13.9335 45.193 12.8479L45.311 14.1239H48.922V6.31186H40.152V9.15086ZM59.171 0.632863C53.359 0.632863 50.301 3.38786 50.301 7.43286C50.301 12.0029 53.509 14.3209 59.171 14.3209C65.404 14.3209 68.025 11.6329 68.025 7.43286C68.025 3.17086 65.068 0.633863 59.171 0.633863V0.632863ZM59.155 4.05986C59.5403 4.05872 59.9253 4.08076 60.308 4.12586L55.237 9.19986C55.0036 8.66096 54.89 8.07796 54.904 7.49086C54.9 5.42186 55.946 4.06086 59.155 4.06086V4.05986ZM59.171 10.9479C58.7796 10.9496 58.3885 10.9268 58 10.8799L63.117 5.76186C63.3577 6.30489 63.4729 6.89518 63.454 7.48886C63.456 9.49986 62.5 10.9489 59.171 10.9489V10.9479Z" fill="#394149"/>
</svg>
