<svg width="44" height="30" viewBox="0 0 44 30" fill="none" xmlns="http://www.w3.org/2000/svg">
<path d="M9.84802 7.21361C7.49202 7.21361 5.53902 8.29861 4.26802 10.0346V7.58561H0.796021V29.2856H4.26802V20.9466C5.53902 22.6826 7.49202 23.7676 9.84802 23.7676C14.281 23.7676 17.629 20.2026 17.629 15.4906C17.629 10.7786 14.281 7.21361 9.84802 7.21361ZM9.16602 20.4196C6.37602 20.4196 4.26802 18.2806 4.26802 15.4906C4.26802 12.7006 6.37602 10.5616 9.16602 10.5616C11.956 10.5616 14.033 12.7006 14.033 15.4906C14.033 18.2806 11.956 20.4196 9.16602 20.4196Z" fill="#FF360A"/>
<path d="M31.3736 20.0476C30.1956 20.0476 29.1416 19.4586 28.3046 18.3736L25.9796 15.4596L31.7146 7.58561H27.4986L23.5926 13.1036L19.6866 7.58561H15.4396L21.2056 15.4596L15.3466 23.3956H19.5626L23.5926 17.6606L25.3906 20.0786C26.8786 22.4346 28.6456 23.3956 30.9706 23.3956H32.2726V20.0476H31.3736Z" fill="#FF360A"/>
<path d="M42.4121 20.0476C40.9861 20.0476 39.7151 19.5826 38.6301 18.7766C41.1411 15.8316 42.5981 12.0496 42.5981 8.17461C42.5981 3.46262 40.3971 0.703613 37.0181 0.703613C33.4531 0.703613 31.1281 3.71061 31.1281 9.22861C31.1281 13.0106 32.0891 16.3276 33.7941 18.8076C32.8951 19.5206 31.9031 20.1406 30.8181 20.6056L32.1511 23.3956C33.5461 22.8686 34.8481 22.1246 36.0261 21.2566C37.7311 22.6206 39.8391 23.3956 42.1951 23.3956H43.2801V20.0476H42.4121ZM36.9251 4.05161C38.2271 4.05161 39.0331 5.53961 39.0331 8.17461C39.0331 11.0576 38.0721 13.8476 36.3671 16.1416C35.2821 14.2196 34.6931 11.7396 34.6931 8.98061C34.6931 5.63261 35.5921 4.05161 36.9251 4.05161Z" fill="#FF360A"/>
</svg>
